<?xml version="1.0" encoding="UTF-8"?>
<svg width="377px" height="72px" viewBox="0 0 377 72" version="1.1" xmlns="http://www.w3.org/2000/svg" xmlns:xlink="http://www.w3.org/1999/xlink">
    <title>Group</title>
    <g id="Page-1" stroke="none" stroke-width="1" fill="none" fill-rule="evenodd">
        <g id="Group" transform="translate(1.500000, 0.300000)">
            <g id="Just-Tankless" transform="translate(1.150000, 0.000000)" fill="#000000" fill-rule="nonzero">
                <g>
                    <path d="M4,18.35 C3.96666667,18.5166667 3.94166667,18.6666667 3.925,18.8 C3.90833333,18.9333333 3.9,19.0333333 3.9,19.1 C3.9,19.7 4.19166667,20.1916667 4.775,20.575 C5.35833333,20.9583333 6.03333333,21.2666667 6.8,21.5 C7.56666667,21.7333333 8.33333333,21.8916667 9.1,21.975 C9.86666667,22.0583333 10.4333333,22.1 10.8,22.1 C12.2333333,22.1 13.175,21.7833333 13.625,21.15 C14.075,20.5166667 14.3,19.5666667 14.3,18.3 L14.3,2.9 C14.3,2.66666667 14.225,2.475 14.075,2.325 C13.925,2.175 13.5333333,2.06666667 12.9,2 L12.9,1.4 L23.2,1.4 L23.2,2 C22.5666667,2.06666667 22.175,2.175 22.025,2.325 C21.875,2.475 21.8,2.66666667 21.8,2.9 L21.8,19.55 C21.8,21.3166667 21.5083333,22.75 20.925,23.85 C20.3416667,24.95 19.5416667,25.8 18.525,26.4 C17.5083333,27 16.3166667,27.3916667 14.95,27.575 C13.5833333,27.7583333 12.1166667,27.85 10.55,27.85 C9.35,27.85 8.25,27.7833333 7.25,27.65 C6.25,27.5166667 5.375,27.35 4.625,27.15 C3.875,26.95 3.26666667,26.7666667 2.8,26.6 C2.33333333,26.4333333 2.03333333,26.35 1.9,26.35 C1.63333333,26.35 1.44166667,26.4 1.325,26.5 C1.20833333,26.6 1.01666667,26.7666667 0.75,27 L-5.77315973e-15,26.55 L3.4,18.15 L4,18.35 Z" id="Path"></path>
                    <path d="M32.1,7.2 C32.1,6.83333333 31.9583333,6.6 31.675,6.5 C31.3916667,6.4 31.05,6.33333333 30.65,6.3 L30.65,5.7 L39.65,5.7 L39.65,6.3 C39.4833333,6.33333333 39.3,6.4 39.1,6.5 C38.9,6.6 38.8,6.83333333 38.8,7.2 L38.8,19.35 C38.8,20.6166667 39.2583333,21.525 40.175,22.075 C41.0916667,22.625 42.3,22.9 43.8,22.9 C45.3,22.9 46.5083333,22.625 47.425,22.075 C48.3416667,21.525 48.8,20.6166667 48.8,19.35 L48.8,7.2 C48.8,6.83333333 48.7,6.6 48.5,6.5 C48.3,6.4 48.1166667,6.33333333 47.95,6.3 L47.95,5.7 L56.95,5.7 L56.95,6.3 C56.55,6.33333333 56.2083333,6.4 55.925,6.5 C55.6416667,6.6 55.5,6.83333333 55.5,7.2 L55.5,18.2 C55.5,19.5333333 55.3,20.7916667 54.9,21.975 C54.5,23.1583333 53.85,24.1916667 52.95,25.075 C52.05,25.9583333 50.85,26.6416667 49.35,27.125 C47.85,27.6083333 46,27.85 43.8,27.85 C41.6,27.85 39.75,27.6083333 38.25,27.125 C36.75,26.6416667 35.55,25.9583333 34.65,25.075 C33.75,24.1916667 33.1,23.1583333 32.7,21.975 C32.3,20.7916667 32.1,19.5333333 32.1,18.2 L32.1,7.2 Z" id="Path"></path>
                    <path d="M65.1,20.35 C65.1,20.4166667 65.0916667,20.4916667 65.075,20.575 C65.0583333,20.6583333 65.05,20.7666667 65.05,20.9 C65.05,21.2333333 65.3666667,21.55 66,21.85 C66.6333333,22.15 67.4416667,22.425 68.425,22.675 C69.4083333,22.925 70.475,23.125 71.625,23.275 C72.775,23.425 73.85,23.5 74.85,23.5 C75.15,23.5 75.5583333,23.4833333 76.075,23.45 C76.5916667,23.4166667 77.1,23.325 77.6,23.175 C78.1,23.025 78.525,22.8083333 78.875,22.525 C79.225,22.2416667 79.4,21.85 79.4,21.35 C79.4,20.6833333 79,20.2083333 78.2,19.925 C77.4,19.6416667 76.3916667,19.425 75.175,19.275 C73.9583333,19.125 72.6416667,18.9666667 71.225,18.8 C69.8083333,18.6333333 68.4916667,18.3416667 67.275,17.925 C66.0583333,17.5083333 65.05,16.9083333 64.25,16.125 C63.45,15.3416667 63.05,14.25 63.05,12.85 C63.05,12.0833333 63.25,11.2583333 63.65,10.375 C64.05,9.49166667 64.6833333,8.68333333 65.55,7.95 C66.4166667,7.21666667 67.5583333,6.60833333 68.975,6.125 C70.3916667,5.64166667 72.1166667,5.4 74.15,5.4 C75.35,5.4 76.4916667,5.46666667 77.575,5.6 C78.6583333,5.73333333 79.6416667,5.88333333 80.525,6.05 C81.4083333,6.21666667 82.1583333,6.36666667 82.775,6.5 C83.3916667,6.63333333 83.8333333,6.7 84.1,6.7 C84.3666667,6.7 84.5833333,6.625 84.75,6.475 C84.9166667,6.325 85.0666667,6.2 85.2,6.1 L85.75,6.3 L82.75,12.6 L82.1,12.3 C82.1,12.2333333 82.1083333,12.15 82.125,12.05 C82.1416667,11.95 82.15,11.85 82.15,11.75 C82.15,11.6166667 81.95,11.45 81.55,11.25 C81.15,11.05 80.625,10.85 79.975,10.65 C79.325,10.45 78.5916667,10.275 77.775,10.125 C76.9583333,9.975 76.1166667,9.9 75.25,9.9 C74.95,9.9 74.4833333,9.90833333 73.85,9.925 C73.2166667,9.94166667 72.5833333,10.025 71.95,10.175 C71.3166667,10.325 70.7583333,10.5416667 70.275,10.825 C69.7916667,11.1083333 69.55,11.5333333 69.55,12.1 C69.55,12.7 69.95,13.125 70.75,13.375 C71.55,13.625 72.5583333,13.825 73.775,13.975 C74.9916667,14.125 76.3083333,14.2916667 77.725,14.475 C79.1416667,14.6583333 80.4583333,14.9666667 81.675,15.4 C82.8916667,15.8333333 83.9,16.4583333 84.7,17.275 C85.5,18.0916667 85.9,19.2333333 85.9,20.7 C85.9,21.6666667 85.6833333,22.5916667 85.25,23.475 C84.8166667,24.3583333 84.15,25.1333333 83.25,25.8 C82.35,26.4666667 81.2083333,26.975 79.825,27.325 C78.4416667,27.675 76.8,27.85 74.9,27.85 C73.7,27.85 72.4833333,27.775 71.25,27.625 C70.0166667,27.475 68.8833333,27.2916667 67.85,27.075 C66.8166667,26.8583333 65.9583333,26.6583333 65.275,26.475 C64.5916667,26.2916667 64.2,26.2 64.1,26.2 C63.8666667,26.2 63.6583333,26.275 63.475,26.425 C63.2916667,26.575 63.1166667,26.7333333 62.95,26.9 L62.4,26.75 L64.45,20.05 L65.1,20.35 Z" id="Path"></path>
                    <path d="M112.7,5.7 C112.9,5.7 113.1,5.63333333 113.3,5.5 C113.5,5.36666667 113.6,5.06666667 113.6,4.6 L114.2,4.6 L114.2,11.9 L113.6,11.9 C113.6,11.4333333 113.5,11.1333333 113.3,11 C113.1,10.8666667 112.9,10.8 112.7,10.8 L105.55,10.8 L105.55,26.2 C105.55,26.5666667 105.675,26.8 105.925,26.9 C106.175,27 106.433333,27.0666667 106.7,27.1 L106.7,27.7 L97.7,27.7 L97.7,27.1 C97.9666667,27.0666667 98.225,27 98.475,26.9 C98.725,26.8 98.85,26.5666667 98.85,26.2 L98.85,10.8 L91.7,10.8 C91.5,10.8 91.3,10.8666667 91.1,11 C90.9,11.1333333 90.8,11.4333333 90.8,11.9 L90.2,11.9 L90.2,4.6 L90.8,4.6 C90.8,5.06666667 90.9,5.36666667 91.1,5.5 C91.3,5.63333333 91.5,5.7 91.7,5.7 L112.7,5.7 Z" id="Path"></path>
                    <path d="M141.45,27.1 C142.083333,27.0333333 142.475,26.925 142.625,26.775 C142.775,26.625 142.85,26.4333333 142.85,26.2 L142.85,7.5 L134.25,7.5 C133.983333,7.5 133.783333,7.59166667 133.65,7.775 C133.516667,7.95833333 133.416667,8.33333333 133.35,8.9 L132.75,8.9 L132.75,0 L133.35,0 C133.416667,0.566666667 133.516667,0.941666667 133.65,1.125 C133.783333,1.30833333 133.983333,1.4 134.25,1.4 L158.95,1.4 C159.216667,1.4 159.416667,1.30833333 159.55,1.125 C159.683333,0.941666667 159.783333,0.566666667 159.85,0 L160.45,0 L160.45,8.9 L159.85,8.9 C159.783333,8.33333333 159.683333,7.95833333 159.55,7.775 C159.416667,7.59166667 159.216667,7.5 158.95,7.5 L150.35,7.5 L150.35,26.2 C150.35,26.4333333 150.425,26.625 150.575,26.775 C150.725,26.925 151.116667,27.0333333 151.75,27.1 L151.75,27.7 L141.45,27.7 L141.45,27.1 Z" id="Path"></path>
                    <path d="M184.6,27.1 C184.7,27.1 184.833333,27.0833333 185,27.05 C185.166667,27.0166667 185.25,26.8833333 185.25,26.65 C185.25,26.5166667 185.191667,26.3083333 185.075,26.025 C184.958333,25.7416667 184.825,25.4333333 184.675,25.1 C184.525,24.7666667 184.366667,24.4333333 184.2,24.1 C184.033333,23.7666667 183.9,23.4833333 183.8,23.25 L172.2,23.25 C172.133333,23.4833333 172.025,23.7666667 171.875,24.1 C171.725,24.4333333 171.566667,24.7666667 171.4,25.1 C171.233333,25.4333333 171.083333,25.7416667 170.95,26.025 C170.816667,26.3083333 170.75,26.5166667 170.75,26.65 C170.75,26.8833333 170.833333,27.0166667 171,27.05 C171.166667,27.0833333 171.3,27.1 171.4,27.1 L171.4,27.7 L163.9,27.7 L163.9,27.1 C164.1,27.1 164.3,27.0583333 164.5,26.975 C164.7,26.8916667 164.833333,26.7666667 164.9,26.6 C165.9,24.2666667 166.916667,21.9583333 167.95,19.675 C168.983333,17.3916667 169.908333,15.325 170.725,13.475 C171.541667,11.625 172.216667,10.0916667 172.75,8.875 C173.283333,7.65833333 173.55,6.96666667 173.55,6.8 C173.55,6.5 173.333333,6.33333333 172.9,6.3 L172.9,5.7 L183.35,5.7 L183.35,6.3 C182.916667,6.33333333 182.7,6.5 182.7,6.8 C182.7,6.9 182.875,7.34166667 183.225,8.125 C183.575,8.90833333 184.033333,9.89166667 184.6,11.075 C185.166667,12.2583333 185.791667,13.5666667 186.475,15 C187.158333,16.4333333 187.841667,17.8666667 188.525,19.3 C189.208333,20.7333333 189.85,22.0916667 190.45,23.375 C191.05,24.6583333 191.533333,25.7333333 191.9,26.6 C191.966667,26.7666667 192.1,26.8916667 192.3,26.975 C192.5,27.0583333 192.7,27.1 192.9,27.1 L192.9,27.7 L184.6,27.7 L184.6,27.1 Z M177.9,10.9 L173.8,19.65 L182.1,19.65 L177.9,10.9 Z" id="Shape"></path>
                    <path d="M224.2,26.2 C224.2,26.5666667 224.333333,26.8 224.6,26.9 C224.866667,27 225.2,27.0666667 225.6,27.1 L225.6,27.7 L216.35,27.7 L216.35,27.1 C216.616667,27.1 216.925,27.0666667 217.275,27 C217.625,26.9333333 217.8,26.75 217.8,26.45 C217.8,26.15 217.433333,25.5916667 216.7,24.775 C215.966667,23.9583333 215.025,22.95 213.875,21.75 C212.725,20.55 211.433333,19.2083333 210,17.725 C208.566667,16.2416667 207.15,14.6666667 205.75,13 L205.65,13.1 L205.65,26.2 C205.65,26.5666667 205.775,26.8 206.025,26.9 C206.275,27 206.583333,27.0666667 206.95,27.1 L206.95,27.7 L198.4,27.7 L198.4,27.1 C198.733333,27.0666667 199.025,27 199.275,26.9 C199.525,26.8 199.65,26.5666667 199.65,26.2 L199.65,7.2 C199.65,6.83333333 199.516667,6.6 199.25,6.5 C198.983333,6.4 198.666667,6.33333333 198.3,6.3 L198.3,5.7 L210.2,5.7 L210.2,6.3 C209.966667,6.33333333 209.733333,6.4 209.5,6.5 C209.266667,6.6 209.15,6.83333333 209.15,7.2 C209.15,7.26666667 209.425,7.60833333 209.975,8.225 C210.525,8.84166667 211.233333,9.61666667 212.1,10.55 C212.966667,11.4833333 213.933333,12.5166667 215,13.65 C216.066667,14.7833333 217.133333,15.9166667 218.2,17.05 L218.2,7.2 C218.2,6.83333333 218.066667,6.6 217.8,6.5 C217.533333,6.4 217.2,6.33333333 216.8,6.3 L216.8,5.7 L225.6,5.7 L225.6,6.3 C225.2,6.33333333 224.866667,6.4 224.6,6.5 C224.333333,6.6 224.2,6.83333333 224.2,7.2 L224.2,26.2 Z" id="Path"></path>
                    <path d="M247.6,27.1 C247.833333,27.1 248.125,27.05 248.475,26.95 C248.825,26.85 249,26.6166667 249,26.25 C249,26.15 248.883333,25.9083333 248.65,25.525 C248.416667,25.1416667 248.125,24.6833333 247.775,24.15 C247.425,23.6166667 247.033333,23.025 246.6,22.375 C246.166667,21.725 245.75,21.1083333 245.35,20.525 C244.95,19.9416667 244.591667,19.4166667 244.275,18.95 C243.958333,18.4833333 243.733333,18.1333333 243.6,17.9 L239.25,22.1 L239.25,26.2 C239.25,26.5666667 239.4,26.8 239.7,26.9 C240,27 240.316667,27.0666667 240.65,27.1 L240.65,27.7 L231.3,27.7 L231.3,27.1 C231.6,27.1333333 231.883333,27.0833333 232.15,26.95 C232.416667,26.8166667 232.55,26.5666667 232.55,26.2 L232.55,7.2 C232.55,6.83333333 232.416667,6.58333333 232.15,6.45 C231.883333,6.31666667 231.6,6.26666667 231.3,6.3 L231.3,5.7 L240.65,5.7 L240.65,6.3 C240.316667,6.33333333 240,6.4 239.7,6.5 C239.4,6.6 239.25,6.83333333 239.25,7.2 L239.25,16.4 C239.75,15.9666667 240.341667,15.45 241.025,14.85 C241.708333,14.25 242.425,13.625 243.175,12.975 C243.925,12.325 244.666667,11.6833333 245.4,11.05 C246.133333,10.4166667 246.791667,9.825 247.375,9.275 C247.958333,8.725 248.425,8.26666667 248.775,7.9 C249.125,7.53333333 249.3,7.3 249.3,7.2 C249.3,6.83333333 249.158333,6.6 248.875,6.5 C248.591667,6.4 248.316667,6.33333333 248.05,6.3 L248.05,5.7 L257.8,5.7 L257.8,6.3 C257.3,6.36666667 256.65,6.71666667 255.85,7.35 C255.05,7.98333333 254.2,8.70833333 253.3,9.525 C252.4,10.3416667 251.508333,11.175 250.625,12.025 C249.741667,12.875 248.983333,13.55 248.35,14.05 L256.65,26.35 C256.816667,26.6166667 256.991667,26.8 257.175,26.9 C257.358333,27 257.566667,27.0666667 257.8,27.1 L257.8,27.7 L247.6,27.7 L247.6,27.1 Z" id="Path"></path>
                    <path d="M263.45,7.2 C263.45,6.83333333 263.316667,6.6 263.05,6.5 C262.783333,6.4 262.466667,6.33333333 262.1,6.3 L262.1,5.7 L271.45,5.7 L271.45,6.3 C271.083333,6.33333333 270.775,6.4 270.525,6.5 C270.275,6.6 270.15,6.83333333 270.15,7.2 L270.15,22.6 L283.85,22.6 C284.05,22.6 284.25,22.525 284.45,22.375 C284.65,22.225 284.75,21.8833333 284.75,21.35 L285.35,21.35 L285.35,28.8 L284.75,28.8 C284.75,28.2666667 284.65,27.95 284.45,27.85 C284.25,27.75 284.05,27.7 283.85,27.7 L262.1,27.7 L262.1,27.1 C262.466667,27.0666667 262.783333,27 263.05,26.9 C263.316667,26.8 263.45,26.5666667 263.45,26.2 L263.45,7.2 Z" id="Path"></path>
                    <path d="M312.3,23.3 C312.966667,23.3 313.4,22.8833333 313.6,22.05 L314.2,22.05 L314.2,28.6 L313.7,28.6 C313.533333,28.1333333 313.358333,27.8666667 313.175,27.8 C312.991667,27.7333333 312.7,27.7 312.3,27.7 L290,27.7 L290,27.1 C290.366667,27.0666667 290.691667,27 290.975,26.9 C291.258333,26.8 291.4,26.5666667 291.4,26.2 L291.4,7.2 C291.4,6.83333333 291.258333,6.6 290.975,6.5 C290.691667,6.4 290.366667,6.33333333 290,6.3 L290,5.7 L312.7,5.7 C312.9,5.7 313.1,5.63333333 313.3,5.5 C313.5,5.36666667 313.6,5.06666667 313.6,4.6 L314.2,4.6 L314.2,11.3 L313.6,11.3 C313.6,10.8 313.5,10.475 313.3,10.325 C313.1,10.175 312.9,10.1 312.7,10.1 L298.1,10.1 L298.1,14.15 L307.5,14.15 C307.7,14.15 307.9,14.075 308.1,13.925 C308.3,13.775 308.4,13.4666667 308.4,13 L309,13 L309,19.5 L308.4,19.5 C308.4,19.0333333 308.3,18.725 308.1,18.575 C307.9,18.425 307.7,18.35 307.5,18.35 L298.1,18.35 L298.1,23.3 L312.3,23.3 Z" id="Path"></path>
                    <path d="M322.1,20.35 C322.1,20.4166667 322.091667,20.4916667 322.075,20.575 C322.058333,20.6583333 322.05,20.7666667 322.05,20.9 C322.05,21.2333333 322.366667,21.55 323,21.85 C323.633333,22.15 324.441667,22.425 325.425,22.675 C326.408333,22.925 327.475,23.125 328.625,23.275 C329.775,23.425 330.85,23.5 331.85,23.5 C332.15,23.5 332.558333,23.4833333 333.075,23.45 C333.591667,23.4166667 334.1,23.325 334.6,23.175 C335.1,23.025 335.525,22.8083333 335.875,22.525 C336.225,22.2416667 336.4,21.85 336.4,21.35 C336.4,20.6833333 336,20.2083333 335.2,19.925 C334.4,19.6416667 333.391667,19.425 332.175,19.275 C330.958333,19.125 329.641667,18.9666667 328.225,18.8 C326.808333,18.6333333 325.491667,18.3416667 324.275,17.925 C323.058333,17.5083333 322.05,16.9083333 321.25,16.125 C320.45,15.3416667 320.05,14.25 320.05,12.85 C320.05,12.0833333 320.25,11.2583333 320.65,10.375 C321.05,9.49166667 321.683333,8.68333333 322.55,7.95 C323.416667,7.21666667 324.558333,6.60833333 325.975,6.125 C327.391667,5.64166667 329.116667,5.4 331.15,5.4 C332.35,5.4 333.491667,5.46666667 334.575,5.6 C335.658333,5.73333333 336.641667,5.88333333 337.525,6.05 C338.408333,6.21666667 339.158333,6.36666667 339.775,6.5 C340.391667,6.63333333 340.833333,6.7 341.1,6.7 C341.366667,6.7 341.583333,6.625 341.75,6.475 C341.916667,6.325 342.066667,6.2 342.2,6.1 L342.75,6.3 L339.75,12.6 L339.1,12.3 C339.1,12.2333333 339.108333,12.15 339.125,12.05 C339.141667,11.95 339.15,11.85 339.15,11.75 C339.15,11.6166667 338.95,11.45 338.55,11.25 C338.15,11.05 337.625,10.85 336.975,10.65 C336.325,10.45 335.591667,10.275 334.775,10.125 C333.958333,9.975 333.116667,9.9 332.25,9.9 C331.95,9.9 331.483333,9.90833333 330.85,9.925 C330.216667,9.94166667 329.583333,10.025 328.95,10.175 C328.316667,10.325 327.758333,10.5416667 327.275,10.825 C326.791667,11.1083333 326.55,11.5333333 326.55,12.1 C326.55,12.7 326.95,13.125 327.75,13.375 C328.55,13.625 329.558333,13.825 330.775,13.975 C331.991667,14.125 333.308333,14.2916667 334.725,14.475 C336.141667,14.6583333 337.458333,14.9666667 338.675,15.4 C339.891667,15.8333333 340.9,16.4583333 341.7,17.275 C342.5,18.0916667 342.9,19.2333333 342.9,20.7 C342.9,21.6666667 342.683333,22.5916667 342.25,23.475 C341.816667,24.3583333 341.15,25.1333333 340.25,25.8 C339.35,26.4666667 338.208333,26.975 336.825,27.325 C335.441667,27.675 333.8,27.85 331.9,27.85 C330.7,27.85 329.483333,27.775 328.25,27.625 C327.016667,27.475 325.883333,27.2916667 324.85,27.075 C323.816667,26.8583333 322.958333,26.6583333 322.275,26.475 C321.591667,26.2916667 321.2,26.2 321.1,26.2 C320.866667,26.2 320.658333,26.275 320.475,26.425 C320.291667,26.575 320.116667,26.7333333 319.95,26.9 L319.4,26.75 L321.45,20.05 L322.1,20.35 Z" id="Path"></path>
                    <path d="M349.9,20.35 C349.9,20.4166667 349.891667,20.4916667 349.875,20.575 C349.858333,20.6583333 349.85,20.7666667 349.85,20.9 C349.85,21.2333333 350.166667,21.55 350.8,21.85 C351.433333,22.15 352.241667,22.425 353.225,22.675 C354.208333,22.925 355.275,23.125 356.425,23.275 C357.575,23.425 358.65,23.5 359.65,23.5 C359.95,23.5 360.358333,23.4833333 360.875,23.45 C361.391667,23.4166667 361.9,23.325 362.4,23.175 C362.9,23.025 363.325,22.8083333 363.675,22.525 C364.025,22.2416667 364.2,21.85 364.2,21.35 C364.2,20.6833333 363.8,20.2083333 363,19.925 C362.2,19.6416667 361.191667,19.425 359.975,19.275 C358.758333,19.125 357.441667,18.9666667 356.025,18.8 C354.608333,18.6333333 353.291667,18.3416667 352.075,17.925 C350.858333,17.5083333 349.85,16.9083333 349.05,16.125 C348.25,15.3416667 347.85,14.25 347.85,12.85 C347.85,12.0833333 348.05,11.2583333 348.45,10.375 C348.85,9.49166667 349.483333,8.68333333 350.35,7.95 C351.216667,7.21666667 352.358333,6.60833333 353.775,6.125 C355.191667,5.64166667 356.916667,5.4 358.95,5.4 C360.15,5.4 361.291667,5.46666667 362.375,5.6 C363.458333,5.73333333 364.441667,5.88333333 365.325,6.05 C366.208333,6.21666667 366.958333,6.36666667 367.575,6.5 C368.191667,6.63333333 368.633333,6.7 368.9,6.7 C369.166667,6.7 369.383333,6.625 369.55,6.475 C369.716667,6.325 369.866667,6.2 370,6.1 L370.55,6.3 L367.55,12.6 L366.9,12.3 C366.9,12.2333333 366.908333,12.15 366.925,12.05 C366.941667,11.95 366.95,11.85 366.95,11.75 C366.95,11.6166667 366.75,11.45 366.35,11.25 C365.95,11.05 365.425,10.85 364.775,10.65 C364.125,10.45 363.391667,10.275 362.575,10.125 C361.758333,9.975 360.916667,9.9 360.05,9.9 C359.75,9.9 359.283333,9.90833333 358.65,9.925 C358.016667,9.94166667 357.383333,10.025 356.75,10.175 C356.116667,10.325 355.558333,10.5416667 355.075,10.825 C354.591667,11.1083333 354.35,11.5333333 354.35,12.1 C354.35,12.7 354.75,13.125 355.55,13.375 C356.35,13.625 357.358333,13.825 358.575,13.975 C359.791667,14.125 361.108333,14.2916667 362.525,14.475 C363.941667,14.6583333 365.258333,14.9666667 366.475,15.4 C367.691667,15.8333333 368.7,16.4583333 369.5,17.275 C370.3,18.0916667 370.7,19.2333333 370.7,20.7 C370.7,21.6666667 370.483333,22.5916667 370.05,23.475 C369.616667,24.3583333 368.95,25.1333333 368.05,25.8 C367.15,26.4666667 366.008333,26.975 364.625,27.325 C363.241667,27.675 361.6,27.85 359.7,27.85 C358.5,27.85 357.283333,27.775 356.05,27.625 C354.816667,27.475 353.683333,27.2916667 352.65,27.075 C351.616667,26.8583333 350.758333,26.6583333 350.075,26.475 C349.391667,26.2916667 349,26.2 348.9,26.2 C348.666667,26.2 348.458333,26.275 348.275,26.425 C348.091667,26.575 347.916667,26.7333333 347.75,26.9 L347.2,26.75 L349.25,20.05 L349.9,20.35 Z" id="Path"></path>
                </g>
            </g>
            <g id="Water-Heater-Experts" transform="translate(1.816406, 48.567188)" fill="#000000" fill-rule="nonzero">
                <g>
                    <path d="M16.9921875,17.1328125 L15.0234375,17.1328125 L11.5664062,5.66015625 C11.4023438,5.15234375 11.21875,4.51171875 11.015625,3.73828125 C10.8125,2.96484375 10.7070312,2.5 10.6992188,2.34375 C10.5273438,3.375 10.2539062,4.50390625 9.87890625,5.73046875 L6.52734375,17.1328125 L4.55859375,17.1328125 L0,0 L2.109375,0 L4.81640625,10.5820312 C5.19140625,12.0664062 5.46484375,13.4101562 5.63671875,14.6132812 C5.84765625,13.1835938 6.16015625,11.7851563 6.57421875,10.4179688 L9.64453125,0 L11.7539062,0 L14.9765625,10.5117188 C15.3515625,11.7226563 15.6679688,13.0898438 15.9257812,14.6132812 C16.0742188,13.5039062 16.3554688,12.1523438 16.7695312,10.5585938 L19.4648438,0 L21.5742188,0 L16.9921875,17.1328125 Z" id="Path"></path>
                    <path d="M38.7632812,17.1328125 L38.3765625,15.3046875 L38.2828125,15.3046875 C37.6421875,16.109375 37.0035156,16.6542969 36.3667969,16.9394531 C35.7300781,17.2246094 34.9351562,17.3671875 33.9820312,17.3671875 C32.7085937,17.3671875 31.7105469,17.0390625 30.9878906,16.3828125 C30.2652344,15.7265625 29.9039062,14.7929688 29.9039062,13.5820312 C29.9039062,10.9882812 31.978125,9.62890625 36.1265625,9.50390625 L38.30625,9.43359375 L38.30625,8.63671875 C38.30625,7.62890625 38.0894531,6.88476562 37.6558594,6.40429688 C37.2222656,5.92382812 36.5289062,5.68359375 35.5757812,5.68359375 C34.5054687,5.68359375 33.2945312,6.01171875 31.9429687,6.66796875 L31.3453125,5.1796875 C31.978125,4.8359375 32.6714844,4.56640625 33.4253906,4.37109375 C34.1792969,4.17578125 34.9351562,4.078125 35.6929687,4.078125 C37.2242187,4.078125 38.3589844,4.41796875 39.0972656,5.09765625 C39.8355469,5.77734375 40.2046875,6.8671875 40.2046875,8.3671875 L40.2046875,17.1328125 L38.7632812,17.1328125 Z M34.36875,15.7617188 C35.5796875,15.7617188 36.5308594,15.4296875 37.2222656,14.765625 C37.9136719,14.1015625 38.259375,13.171875 38.259375,11.9765625 L38.259375,10.8164062 L36.3140625,10.8984375 C34.7671875,10.953125 33.6519531,11.1933594 32.9683594,11.6191406 C32.2847656,12.0449219 31.9429687,12.7070312 31.9429687,13.6054688 C31.9429687,14.3085938 32.1558594,14.84375 32.5816406,15.2109375 C33.0074219,15.578125 33.603125,15.7617188 34.36875,15.7617188 Z" id="Shape"></path>
                    <path d="M55.2609375,15.7617188 C55.6046875,15.7617188 55.9367187,15.7363281 56.2570312,15.6855469 C56.5773437,15.6347656 56.83125,15.5820312 57.01875,15.5273438 L57.01875,17.015625 C56.8078125,17.1171875 56.4972656,17.2011719 56.0871094,17.2675781 C55.6769531,17.3339844 55.3078125,17.3671875 54.9796875,17.3671875 C52.4953125,17.3671875 51.253125,16.0585938 51.253125,13.4414062 L51.253125,5.80078125 L49.4132812,5.80078125 L49.4132812,4.86328125 L51.253125,4.0546875 L52.0734375,1.3125 L53.1984375,1.3125 L53.1984375,4.2890625 L56.925,4.2890625 L56.925,5.80078125 L53.1984375,5.80078125 L53.1984375,13.359375 C53.1984375,14.1328125 53.3820312,14.7265625 53.7492187,15.140625 C54.1164062,15.5546875 54.6203125,15.7617188 55.2609375,15.7617188 Z" id="Path"></path>
                    <path d="M71.9109375,17.3671875 C70.0125,17.3671875 68.5144531,16.7890625 67.4167969,15.6328125 C66.3191406,14.4765625 65.7703125,12.8710938 65.7703125,10.8164062 C65.7703125,8.74609375 66.2800781,7.1015625 67.2996094,5.8828125 C68.3191406,4.6640625 69.6882813,4.0546875 71.4070313,4.0546875 C73.0164063,4.0546875 74.2898438,4.58398438 75.2273438,5.64257812 C76.1648438,6.70117188 76.6335938,8.09765625 76.6335938,9.83203125 L76.6335938,11.0625 L67.7859375,11.0625 C67.825,12.5703125 68.2058594,13.7148438 68.9285156,14.4960938 C69.6511719,15.2773438 70.66875,15.6679688 71.98125,15.6679688 C73.3640625,15.6679688 74.73125,15.3789062 76.0828125,14.8007812 L76.0828125,16.5351562 C75.3953125,16.8320312 74.7449219,17.0449219 74.1316406,17.1738281 C73.5183594,17.3027344 72.778125,17.3671875 71.9109375,17.3671875 Z M71.3835938,5.68359375 C70.3523438,5.68359375 69.5300781,6.01953125 68.9167969,6.69140625 C68.3035156,7.36328125 67.9421875,8.29296875 67.8328125,9.48046875 L74.5476563,9.48046875 C74.5476563,8.25390625 74.2742188,7.31445312 73.7273438,6.66210938 C73.1804688,6.00976562 72.3992188,5.68359375 71.3835938,5.68359375 Z" id="Shape"></path>
                    <path d="M92.709375,4.0546875 C93.2796875,4.0546875 93.7914062,4.1015625 94.2445312,4.1953125 L93.975,6 C93.44375,5.8828125 92.975,5.82421875 92.56875,5.82421875 C91.5296875,5.82421875 90.6410156,6.24609375 89.9027344,7.08984375 C89.1644531,7.93359375 88.7953125,8.984375 88.7953125,10.2421875 L88.7953125,17.1328125 L86.85,17.1328125 L86.85,4.2890625 L88.4554687,4.2890625 L88.678125,6.66796875 L88.771875,6.66796875 C89.2484375,5.83203125 89.8226562,5.1875 90.4945312,4.734375 C91.1664062,4.28125 91.9046875,4.0546875 92.709375,4.0546875 Z" id="Path"></path>
                    <polygon id="Path" points="129.982031 17.1328125 127.989844 17.1328125 127.989844 9.0703125 118.966406 9.0703125 118.966406 17.1328125 116.974219 17.1328125 116.974219 0 118.966406 0 118.966406 7.2890625 127.989844 7.2890625 127.989844 0 129.982031 0"></polygon>
                    <path d="M146.714063,17.3671875 C144.815625,17.3671875 143.317578,16.7890625 142.219922,15.6328125 C141.122266,14.4765625 140.573438,12.8710938 140.573438,10.8164062 C140.573438,8.74609375 141.083203,7.1015625 142.102734,5.8828125 C143.122266,4.6640625 144.491406,4.0546875 146.210156,4.0546875 C147.819531,4.0546875 149.092969,4.58398438 150.030469,5.64257812 C150.967969,6.70117188 151.436719,8.09765625 151.436719,9.83203125 L151.436719,11.0625 L142.589063,11.0625 C142.628125,12.5703125 143.008984,13.7148438 143.731641,14.4960938 C144.454297,15.2773438 145.471875,15.6679688 146.784375,15.6679688 C148.167188,15.6679688 149.534375,15.3789062 150.885938,14.8007812 L150.885938,16.5351562 C150.198438,16.8320312 149.548047,17.0449219 148.934766,17.1738281 C148.321484,17.3027344 147.58125,17.3671875 146.714063,17.3671875 Z M146.186719,5.68359375 C145.155469,5.68359375 144.333203,6.01953125 143.719922,6.69140625 C143.106641,7.36328125 142.745313,8.29296875 142.635938,9.48046875 L149.350781,9.48046875 C149.350781,8.25390625 149.077344,7.31445312 148.530469,6.66210938 C147.983594,6.00976562 147.202344,5.68359375 146.186719,5.68359375 Z" id="Shape"></path>
                    <path d="M169.551563,17.1328125 L169.164844,15.3046875 L169.071094,15.3046875 C168.430469,16.109375 167.791797,16.6542969 167.155078,16.9394531 C166.518359,17.2246094 165.723438,17.3671875 164.770313,17.3671875 C163.496875,17.3671875 162.498828,17.0390625 161.776172,16.3828125 C161.053516,15.7265625 160.692188,14.7929688 160.692188,13.5820312 C160.692188,10.9882812 162.766406,9.62890625 166.914844,9.50390625 L169.094531,9.43359375 L169.094531,8.63671875 C169.094531,7.62890625 168.877734,6.88476562 168.444141,6.40429688 C168.010547,5.92382812 167.317188,5.68359375 166.364063,5.68359375 C165.29375,5.68359375 164.082813,6.01171875 162.73125,6.66796875 L162.133594,5.1796875 C162.766406,4.8359375 163.459766,4.56640625 164.213672,4.37109375 C164.967578,4.17578125 165.723438,4.078125 166.48125,4.078125 C168.0125,4.078125 169.147266,4.41796875 169.885547,5.09765625 C170.623828,5.77734375 170.992969,6.8671875 170.992969,8.3671875 L170.992969,17.1328125 L169.551563,17.1328125 Z M165.157031,15.7617188 C166.367969,15.7617188 167.319141,15.4296875 168.010547,14.765625 C168.701953,14.1015625 169.047656,13.171875 169.047656,11.9765625 L169.047656,10.8164062 L167.102344,10.8984375 C165.555469,10.953125 164.440234,11.1933594 163.756641,11.6191406 C163.073047,12.0449219 162.73125,12.7070312 162.73125,13.6054688 C162.73125,14.3085938 162.944141,14.84375 163.369922,15.2109375 C163.795703,15.578125 164.391406,15.7617188 165.157031,15.7617188 Z" id="Shape"></path>
                    <path d="M186.049219,15.7617188 C186.392969,15.7617188 186.725,15.7363281 187.045313,15.6855469 C187.365625,15.6347656 187.619531,15.5820312 187.807031,15.5273438 L187.807031,17.015625 C187.596094,17.1171875 187.285547,17.2011719 186.875391,17.2675781 C186.465234,17.3339844 186.096094,17.3671875 185.767969,17.3671875 C183.283594,17.3671875 182.041406,16.0585938 182.041406,13.4414062 L182.041406,5.80078125 L180.201563,5.80078125 L180.201563,4.86328125 L182.041406,4.0546875 L182.861719,1.3125 L183.986719,1.3125 L183.986719,4.2890625 L187.713281,4.2890625 L187.713281,5.80078125 L183.986719,5.80078125 L183.986719,13.359375 C183.986719,14.1328125 184.170313,14.7265625 184.5375,15.140625 C184.904688,15.5546875 185.408594,15.7617188 186.049219,15.7617188 Z" id="Path"></path>
                    <path d="M202.699219,17.3671875 C200.800781,17.3671875 199.302734,16.7890625 198.205078,15.6328125 C197.107422,14.4765625 196.558594,12.8710938 196.558594,10.8164062 C196.558594,8.74609375 197.068359,7.1015625 198.087891,5.8828125 C199.107422,4.6640625 200.476563,4.0546875 202.195313,4.0546875 C203.804688,4.0546875 205.078125,4.58398438 206.015625,5.64257812 C206.953125,6.70117188 207.421875,8.09765625 207.421875,9.83203125 L207.421875,11.0625 L198.574219,11.0625 C198.613281,12.5703125 198.994141,13.7148438 199.716797,14.4960938 C200.439453,15.2773438 201.457031,15.6679688 202.769531,15.6679688 C204.152344,15.6679688 205.519531,15.3789062 206.871094,14.8007812 L206.871094,16.5351562 C206.183594,16.8320312 205.533203,17.0449219 204.919922,17.1738281 C204.306641,17.3027344 203.566406,17.3671875 202.699219,17.3671875 Z M202.171875,5.68359375 C201.140625,5.68359375 200.318359,6.01953125 199.705078,6.69140625 C199.091797,7.36328125 198.730469,8.29296875 198.621094,9.48046875 L205.335938,9.48046875 C205.335938,8.25390625 205.0625,7.31445312 204.515625,6.66210938 C203.96875,6.00976562 203.1875,5.68359375 202.171875,5.68359375 Z" id="Shape"></path>
                    <path d="M223.497656,4.0546875 C224.067969,4.0546875 224.579688,4.1015625 225.032813,4.1953125 L224.763281,6 C224.232031,5.8828125 223.763281,5.82421875 223.357031,5.82421875 C222.317969,5.82421875 221.429297,6.24609375 220.691016,7.08984375 C219.952734,7.93359375 219.583594,8.984375 219.583594,10.2421875 L219.583594,17.1328125 L217.638281,17.1328125 L217.638281,4.2890625 L219.24375,4.2890625 L219.466406,6.66796875 L219.560156,6.66796875 C220.036719,5.83203125 220.610938,5.1875 221.282813,4.734375 C221.954688,4.28125 222.692969,4.0546875 223.497656,4.0546875 Z" id="Path"></path>
                    <polygon id="Path" points="257.313281 17.1328125 247.7625 17.1328125 247.7625 0 257.313281 0 257.313281 1.76953125 249.754688 1.76953125 249.754688 7.2890625 256.85625 7.2890625 256.85625 9.046875 249.754688 9.046875 249.754688 15.3515625 257.313281 15.3515625"></polygon>
                    <polygon id="Path" points="270.810938 10.5585938 266.346094 4.2890625 268.560938 4.2890625 271.947656 9.2109375 275.322656 4.2890625 277.514063 4.2890625 273.049219 10.5585938 277.748438 17.1328125 275.545313 17.1328125 271.947656 11.9296875 268.314844 17.1328125 266.111719 17.1328125"></polygon>
                    <path d="M293.167969,17.3671875 C292.332031,17.3671875 291.568359,17.2128906 290.876953,16.9042969 C290.185547,16.5957031 289.605469,16.1210938 289.136719,15.4804688 L288.996094,15.4804688 C289.089844,16.2304688 289.136719,16.9414062 289.136719,17.6132812 L289.136719,22.8984375 L287.191406,22.8984375 L287.191406,4.2890625 L288.773438,4.2890625 L289.042969,6.046875 L289.136719,6.046875 C289.636719,5.34375 290.21875,4.8359375 290.882812,4.5234375 C291.546875,4.2109375 292.308594,4.0546875 293.167969,4.0546875 C294.871094,4.0546875 296.185547,4.63671875 297.111328,5.80078125 C298.037109,6.96484375 298.5,8.59765625 298.5,10.6992188 C298.5,12.8085938 298.029297,14.4472656 297.087891,15.6152344 C296.146484,16.7832031 294.839844,17.3671875 293.167969,17.3671875 Z M292.886719,5.70703125 C291.574219,5.70703125 290.625,6.0703125 290.039062,6.796875 C289.453125,7.5234375 289.152344,8.6796875 289.136719,10.265625 L289.136719,10.6992188 C289.136719,12.5039062 289.4375,13.7949219 290.039062,14.5722656 C290.640625,15.3496094 291.605469,15.7382812 292.933594,15.7382812 C294.042969,15.7382812 294.912109,15.2890625 295.541016,14.390625 C296.169922,13.4921875 296.484375,12.2539062 296.484375,10.6757812 C296.484375,9.07421875 296.169922,7.84570312 295.541016,6.99023438 C294.912109,6.13476562 294.027344,5.70703125 292.886719,5.70703125 Z" id="Shape"></path>
                    <path d="M314.224219,17.3671875 C312.325781,17.3671875 310.827734,16.7890625 309.730078,15.6328125 C308.632422,14.4765625 308.083594,12.8710938 308.083594,10.8164062 C308.083594,8.74609375 308.593359,7.1015625 309.612891,5.8828125 C310.632422,4.6640625 312.001562,4.0546875 313.720312,4.0546875 C315.329687,4.0546875 316.603125,4.58398438 317.540625,5.64257812 C318.478125,6.70117188 318.946875,8.09765625 318.946875,9.83203125 L318.946875,11.0625 L310.099219,11.0625 C310.138281,12.5703125 310.519141,13.7148438 311.241797,14.4960938 C311.964453,15.2773438 312.982031,15.6679688 314.294531,15.6679688 C315.677344,15.6679688 317.044531,15.3789062 318.396094,14.8007812 L318.396094,16.5351562 C317.708594,16.8320312 317.058203,17.0449219 316.444922,17.1738281 C315.831641,17.3027344 315.091406,17.3671875 314.224219,17.3671875 Z M313.696875,5.68359375 C312.665625,5.68359375 311.843359,6.01953125 311.230078,6.69140625 C310.616797,7.36328125 310.255469,8.29296875 310.146094,9.48046875 L316.860937,9.48046875 C316.860937,8.25390625 316.5875,7.31445312 316.040625,6.66210938 C315.49375,6.00976562 314.7125,5.68359375 313.696875,5.68359375 Z" id="Shape"></path>
                    <path d="M335.022656,4.0546875 C335.592969,4.0546875 336.104687,4.1015625 336.557812,4.1953125 L336.288281,6 C335.757031,5.8828125 335.288281,5.82421875 334.882031,5.82421875 C333.842969,5.82421875 332.954297,6.24609375 332.216016,7.08984375 C331.477734,7.93359375 331.108594,8.984375 331.108594,10.2421875 L331.108594,17.1328125 L329.163281,17.1328125 L329.163281,4.2890625 L330.76875,4.2890625 L330.991406,6.66796875 L331.085156,6.66796875 C331.561719,5.83203125 332.135937,5.1875 332.807812,4.734375 C333.479687,4.28125 334.217969,4.0546875 335.022656,4.0546875 Z" id="Path"></path>
                    <path d="M350.008594,15.7617188 C350.352344,15.7617188 350.684375,15.7363281 351.004687,15.6855469 C351.325,15.6347656 351.578906,15.5820312 351.766406,15.5273438 L351.766406,17.015625 C351.555469,17.1171875 351.244922,17.2011719 350.834766,17.2675781 C350.424609,17.3339844 350.055469,17.3671875 349.727344,17.3671875 C347.242969,17.3671875 346.000781,16.0585938 346.000781,13.4414062 L346.000781,5.80078125 L344.160937,5.80078125 L344.160937,4.86328125 L346.000781,4.0546875 L346.821094,1.3125 L347.946094,1.3125 L347.946094,4.2890625 L351.672656,4.2890625 L351.672656,5.80078125 L347.946094,5.80078125 L347.946094,13.359375 C347.946094,14.1328125 348.129687,14.7265625 348.496875,15.140625 C348.864062,15.5546875 349.367969,15.7617188 350.008594,15.7617188 Z" id="Path"></path>
                    <path d="M369.517969,13.6289062 C369.517969,14.8242188 369.072656,15.7460938 368.182031,16.3945312 C367.291406,17.0429688 366.041406,17.3671875 364.432031,17.3671875 C362.728906,17.3671875 361.400781,17.0976562 360.447656,16.5585938 L360.447656,14.7539062 C361.064844,15.0664062 361.726953,15.3125 362.433984,15.4921875 C363.141016,15.671875 363.822656,15.7617188 364.478906,15.7617188 C365.494531,15.7617188 366.275781,15.5996094 366.822656,15.2753906 C367.369531,14.9511719 367.642969,14.4570312 367.642969,13.7929688 C367.642969,13.2929688 367.426172,12.8652344 366.992578,12.5097656 C366.558984,12.1542969 365.713281,11.734375 364.455469,11.25 C363.260156,10.8046875 362.410547,10.4160156 361.906641,10.0839844 C361.402734,9.75195312 361.027734,9.375 360.781641,8.953125 C360.535547,8.53125 360.4125,8.02734375 360.4125,7.44140625 C360.4125,6.39453125 360.838281,5.56835938 361.689844,4.96289062 C362.541406,4.35742188 363.709375,4.0546875 365.19375,4.0546875 C366.576562,4.0546875 367.928125,4.3359375 369.248437,4.8984375 L368.557031,6.48046875 C367.267969,5.94921875 366.1,5.68359375 365.053125,5.68359375 C364.13125,5.68359375 363.435937,5.828125 362.967187,6.1171875 C362.498437,6.40625 362.264062,6.8046875 362.264062,7.3125 C362.264062,7.65625 362.351953,7.94921875 362.527734,8.19140625 C362.703516,8.43359375 362.986719,8.6640625 363.377344,8.8828125 C363.767969,9.1015625 364.517969,9.41796875 365.627344,9.83203125 C367.150781,10.3867188 368.180078,10.9453125 368.715234,11.5078125 C369.250391,12.0703125 369.517969,12.7773438 369.517969,13.6289062 Z" id="Path"></path>
                </g>
            </g>
            <line x1="0" y1="40.2" x2="374" y2="40.2" id="Line" stroke="#F70505" stroke-width="2" stroke-linecap="square"></line>
        </g>
    </g>
</svg>