<?xml version="1.0" encoding="UTF-8"?>
<svg width="601px" height="80px" viewBox="0 0 601 80" version="1.1" xmlns="http://www.w3.org/2000/svg" xmlns:xlink="http://www.w3.org/1999/xlink">
    <title>navien-logo</title>
    <g id="Page-1" stroke="none" stroke-width="1" fill="none" fill-rule="evenodd">
        <g id="navien-logo" transform="translate(0.600000, 0.200000)" fill-rule="nonzero">
            <polygon id="Path" fill="#ED7100" points="37.3 2.8 -2.13162821e-14 2.8 -2.13162821e-14 76.9 9.9 76.9 37.3 39.9"></polygon>
            <path d="M182.9,76.9 L138.8,29.8 L138.8,76.9 L119,76.9 L119,2.8 L137.5,2.8 L180.2,48.4 L180.2,2.8 L200,2.8 L200,76.9 L182.9,76.9 Z M600,76.9 L600,2.8 L580.2,2.8 L580.2,48.4 L537.5,2.8 L519,2.8 L519,76.9 L538.8,76.9 L538.8,29.8 L582.9,76.9 L600,76.9 Z M382.9,2.8 L362.5,2.8 L340,54.6 L317.4,2.8 L296.5,2.8 L331.3,76.9 L348,76.9 L382.9,2.8 Z M390.9,76.9 L410.8,76.9 L410.8,2.8 L390.9,2.8 L390.9,76.9 Z M233.5,25.2 C236.2,19 242,12.7 253.1,12.7 C268.9,12.7 274.6,22.5 274.6,31.9 L251,31.9 C238.9,31.9 229.7,32.6 222,36.2 C213.6,40.2 211.9,46 211.9,54.5 C211.9,61.5 215.1,68.3 220.8,72.4 C226.3,76.3 232.3,79.6 241.9,79.6 C249.9,79.6 256.6,78.8 262.9,76.4 C270.6,73.3 273.2,70.9 274.7,70.2 L274.7,77 L294.6,77 L294.6,29.5 C294.6,20.2 290,13.3 284.3,8.5 C276.8,2.2 266.3,0.2 252.8,0.2 C239.6,0.2 230.2,2.1 222.7,8.5 C217.6,12.9 214.8,19.7 213.6,25.3 L233.5,25.3 M252.4,43.9 C257.3,43.8 274,43.9 274,43.9 C274,49.5 273.8,54.9 269,58.7 C264.6,62.2 256.9,64.1 246.3,64.1 C242.1,64.1 232.3,63.2 231.7,53.6 C231.3,46.8 240.9,44.1 252.4,43.9 M464.8,66 C475.9,66 483.8,60.8 486.8,53.3 L506.7,53.3 C504.7,60.3 500.6,66.3 494.4,70.9 C486.6,76.6 476.8,79.5 465.1,79.5 C452,79.5 441.6,76 433.9,69.1 C425.7,62 421.6,52.2 421.6,39.6 C421.6,28.4 425.4,19 433.2,11.5 C440.7,3.8 451.1,0 464.2,0 C478.7,0 489.8,4.1 497.4,12.5 C504.4,20.1 508,30.7 508,44.3 L441.5,44.3 C441.5,45.7 441.8,47.6 441.8,47.6 C442.9,58.2 451.2,66 464.8,66 M464.8,13.7 C451.2,13.7 442.9,21.5 441.8,31.9 L487.8,31.9 C486.8,21.5 478.5,13.7 464.8,13.7 M64.7,2.8 L64.7,2.8 L37.3,39.8 L37.3,39.8 L37.3,76.8 L98.7,76.8 L98.7,2.8 L64.7,2.8 Z" id="Shape" fill="#0F2F6E"></path>
            <path d="M49.4,34 L52.4,34 L52.4,50.1 L67.9,34.1 L71.8,34.1 L60.3,45.8 L72.3,61 L68.5,61 L58.2,48 L52.5,53.8 L52.5,61 L49.5,61 L49.4,34 Z M91.6,51.9 C90.9,50.3 89.9,48.9 88.7,47.7 C87.4,46.5 85.9,45.5 84.2,44.9 C82.4,44.2 80.5,43.9 78.4,43.9 L69.1,43.9 L69.1,50.8 L72.1,54.8 L72.1,46.6 L78.4,46.6 C80.1,46.6 81.6,46.9 83,47.4 C84.4,47.9 85.6,48.7 86.5,49.7 C87.5,50.7 88.2,51.8 88.7,53.1 C89.2,54.4 89.5,55.8 89.5,57.3 L89.5,57.4 C89.5,58.9 89.2,60.3 88.7,61.6 C88.2,62.9 87.4,64 86.5,65 C85.5,65.9 84.4,66.7 83,67.2 C81.6,67.7 80.1,68 78.4,68 L72.1,68 L72.1,65.1 L69.1,65.1 L69.1,70.8 L78.4,70.8 C80.5,70.8 82.4,70.5 84.2,69.8 C86,69.1 87.5,68.2 88.7,67 C90,65.8 91,64.4 91.6,62.7 C92.3,61.1 92.6,59.3 92.6,57.4 L92.6,57.3 C92.6,55.3 92.2,53.6 91.6,51.9" id="Shape" fill="#FFFFFF"></path>
        </g>
    </g>
</svg>