<?xml version="1.0" encoding="utf-8"?>
<!-- Generator: Adobe Illustrator 19.2.1, SVG Export Plug-In . SVG Version: 6.00 Build 0)  -->
<svg version="1.1" id="レイヤー_1" xmlns="http://www.w3.org/2000/svg" xmlns:xlink="http://www.w3.org/1999/xlink" x="0px"
	 y="0px" viewBox="0 0 89.6 18.4" style="enable-background:new 0 0 89.6 18.4;" xml:space="preserve">
<style type="text/css">
	.st0{fill:#DA3B15;}
	.st1{fill:#FFFFFF;}
	.st2{fill:#231815;}
</style>
<g>
	<path class="st0" d="M22.2,9.2c1.5-0.7,2.5-2.3,2.5-4c0-2.5-2-4.5-4.5-4.5c-1.6,0-3,0.8-3.8,2.1c-0.8-1.4-2.2-2.3-3.9-2.3
		c-1.7,0-3.1,0.9-3.9,2.3C7.9,1.5,6.6,0.7,5,0.7c-2.5,0-4.5,2-4.5,4.5c0,1.8,1,3.3,2.5,4c-1.5,0.7-2.5,2.3-2.5,4
		c0,2.5,2,4.5,4.5,4.5c1.6,0,3-0.8,3.8-2.1c0.8,1.4,2.2,2.3,3.9,2.3c1.7,0,3.1-0.9,3.9-2.3c0.8,1.2,2.2,2.1,3.8,2.1
		c2.5,0,4.5-2,4.5-4.5C24.8,11.4,23.7,9.9,22.2,9.2"/>
	<path class="st1" d="M13.9,4.9v8.4c0,0.7-0.6,1.3-1.3,1.3c-0.4,0-0.8-0.2-1-0.5L6.2,8.1v5.3c0,0.7-0.6,1.2-1.2,1.2
		c-0.7,0-1.2-0.6-1.2-1.2V5c0-0.7,0.6-1.3,1.3-1.3c0.4,0,0.8,0.2,1,0.5l5.3,6.1V4.9c0-0.7,0.6-1.2,1.2-1.2
		C13.3,3.7,13.9,4.2,13.9,4.9"/>
	<path class="st2" d="M80.3,4.8h6.2c0,0-5.4,7-5.9,7.6c-0.7,0.9-0.6,2.2-0.6,2.2v0.7h9.1v-1.6h-6.4c0,0,5.4-7,5.9-7.6
		c0.6-0.8,0.5-2,0.5-2V3.1l-8.8,0V4.8 M79.6,3.1H70v1.6h3.5v10.5h2.5V4.8h3.5V3.1z M66.3,15.2h2.5V3.1h-2.5V15.2z M59.6,4.6
		c0.3,0,1.4,0,1.8,0.7c0.4,0.8,0.3,2,0,2.5c-0.2,0.4-0.5,0.6-1,0.7c-0.4,0.1-1.3,0.1-1.3,0.1h-0.6v1.6H59c1.4,0,2,1,2.2,1.5
		c0.1,0.5,0.2,0.8,0.2,1.6c0,1.5,0.1,2,0.1,2h2.6C64,14.8,64,12.9,64,12.9s0-0.5-0.1-1.2c-0.3-1.9-2.1-2.2-2.1-2.2
		c1.5-0.3,1.9-1,2.1-1.3c0.2-0.3,0.3-0.9,0.4-1.7c0-0.8-0.2-1.8-1-2.6C62.2,3,60,3.1,60,3.1h-5.5v12.1h2.5V4.6H59.6z M29.7,15.2h2.1
		v-9c0,0,3.7,7,4.1,7.8c0.7,1.3,2.1,1.2,2.1,1.2H40V3.1h-2.1v9c0,0-3.7-7.1-4.2-8c-0.6-1.1-2.1-1-2.1-1h-1.8V15.2z M49.2,13.6
		c0.8-0.7,0.9-1.8,0.9-1.9c0-0.2,0.1-1.2,0.1-2.5c0-1.3-0.1-2.3-0.1-2.6c0-0.3-0.2-1.1-0.8-1.8c-0.7-0.6-1.9-0.6-1.9-0.6
		s-1.3,0-1.9,0.6c-0.7,0.6-0.8,1.5-0.8,1.8c0,0.3-0.1,1.2-0.1,2.6c0,1.3,0.1,2.3,0.1,2.5c0,0.2,0.1,1.3,0.9,1.9
		c0.6,0.6,1.6,0.6,1.9,0.6C47.6,14.2,48.6,14.2,49.2,13.6z M47.3,15.7c-0.4,0-2.4,0-3.8-1c-1-0.8-1.3-1.8-1.5-2.4
		c-0.1-0.6-0.2-1.3-0.2-3.1c0-1.7,0.1-2.4,0.2-3c0.1-0.5,0.4-1.6,1.5-2.4c1.4-1.1,3.8-1,3.8-1s2.4,0,3.8,1c1.1,0.8,1.4,1.9,1.5,2.4
		c0.1,0.7,0.2,1.3,0.2,3c0,1.7-0.1,2.4-0.2,3.1c-0.1,0.6-0.4,1.7-1.5,2.4C49.7,15.7,47.7,15.7,47.3,15.7z"/>
</g>
</svg>
