<?xml version="1.0" encoding="utf-8"?>
<!-- Generator: Adobe Illustrator 24.2.1, SVG Export Plug-In . SVG Version: 6.00 Build 0)  -->
<svg version="1.1" id="Layer_1" xmlns="http://www.w3.org/2000/svg" xmlns:xlink="http://www.w3.org/1999/xlink" x="0px" y="0px"
	 viewBox="0 0 310 75" xml:space="preserve">
<style type="text/css">
	.st0{fill:#CF000F;}
</style>
<path class="st0" d="M44,45.1c3.2-1.1,12-4,12-18.9S46.2,5.9,28.9,5.9H4.5c-0.9,0-1.6,0.7-1.6,1.5c0,0,0,0,0,0v63.5
	c0,0.9,0.7,1.6,1.6,1.5c0,0,0,0,0,0h12c0.9,0,1.6-0.7,1.6-1.5c0,0,0,0,0,0V46.5h9.4l16.7,24.1c0.8,1.2,2.1,1.9,3.6,1.9h12.9
	c0.7,0,1.2-0.6,1.2-1.3c0-0.2-0.1-0.4-0.2-0.6L44,45.1z M27.2,35.9h-9.1V16.4h9.1c7.4,0,13.5,1.3,13.5,9.7S34.6,35.9,27.2,35.9z"/>
<circle class="st0" cx="74.3" cy="10.4" r="7.9"/>
<path class="st0" d="M68.3,21.8h12c0.9,0,1.6,0.7,1.6,1.6v47.5c0,0.9-0.7,1.6-1.6,1.6h-12c-0.9,0-1.6-0.7-1.6-1.6V23.4
	C66.7,22.5,67.4,21.8,68.3,21.8z"/>
<path class="st0" d="M121.8,20.5c-11.3,0-14.6,4.7-16.5,6.6v-3.8c0-0.9-0.7-1.6-1.6-1.6c0,0,0,0,0,0H91.9c-0.9,0-1.6,0.7-1.6,1.6
	v47.5c0,0.9,0.7,1.6,1.6,1.6c0,0,0,0,0,0h12c0.9,0,1.6-0.7,1.6-1.6c0,0,0,0,0,0V44c0-6.9,4.2-12,11.1-12c7.5,0,11.1,5.3,11.1,12
	v26.9c0,0.9,0.7,1.6,1.6,1.6h12c0.9,0,1.6-0.7,1.6-1.6V40.3C142.9,25.5,132.6,20.5,121.8,20.5z"/>
<path class="st0" d="M182.7,20.5c-11.3,0-14.6,4.7-16.5,6.6v-3.8c0-0.9-0.7-1.6-1.6-1.6c0,0,0,0,0,0h-11.8c-0.9,0-1.6,0.7-1.6,1.6
	v47.5c0,0.9,0.7,1.6,1.6,1.6c0,0,0,0,0,0h12c0.9,0,1.6-0.7,1.6-1.6c0,0,0,0,0,0V44c0-6.9,4.2-12,11.1-12c7.5,0,11.1,5.3,11.1,12
	v26.9c0,0.9,0.7,1.6,1.6,1.6h12c0.9,0,1.6-0.7,1.6-1.6V40.3C203.8,25.5,193.5,20.5,182.7,20.5z"/>
<path class="st0" d="M227.3,21.9c-10.9,3-14.6,10.5-15.4,13.1c-0.2,0.6,0,1.2,0.6,1.5c0.2,0.1,0.4,0.1,0.6,0.1l13.5-0.1
	c0.5,0,1-0.2,1.3-0.5c2.9-3.6,7.1-4.4,11.1-4.2c9.8,0.6,9,8.5,9,9.1c-32.8-3-41,11.6-36.9,22.4c4.8,12.4,28.8,13.8,36.6,5.2
	c1,2.7,1.2,4,3.3,4h10.2c0.9,0,1.6-0.7,1.6-1.6v-30C262.8,19.3,238.5,18.8,227.3,21.9z M247.8,52.4c0,7.3-4.7,11.7-12.8,11.9
	c-6,0.2-11-2.4-11.1-6.3c-0.3-8.9,18.2-8.5,22.3-8.2c1.5,0.1,1.5,0.1,1.5,0.8L247.8,52.4z"/>
<circle class="st0" cx="278.4" cy="10.4" r="7.9"/>
<path class="st0" d="M272.5,21.8h12c0.9,0,1.6,0.7,1.6,1.6v47.5c0,0.9-0.7,1.6-1.6,1.6h-12c-0.9,0-1.6-0.7-1.6-1.6V23.4
	C270.9,22.5,271.6,21.8,272.5,21.8z"/>
<g>
	<path class="st0" d="M301.2,58.5c1.2,0,2.3,0.3,3.4,0.9c1.1,0.6,2,1.5,2.6,2.6c0.6,1.1,0.9,2.3,0.9,3.5c0,1.2-0.3,2.4-0.9,3.5
		s-1.5,2-2.6,2.6c-1.1,0.6-2.3,0.9-3.5,0.9c-1.2,0-2.4-0.3-3.5-0.9s-2-1.5-2.6-2.6c-0.6-1.1-0.9-2.3-0.9-3.5c0-1.2,0.3-2.4,0.9-3.5
		c0.6-1.1,1.5-2,2.6-2.6C298.9,58.8,300,58.5,301.2,58.5z M301.2,59.7c-1,0-1.9,0.3-2.9,0.8c-0.9,0.5-1.7,1.2-2.2,2.2
		c-0.5,0.9-0.8,1.9-0.8,2.9c0,1,0.3,2,0.8,2.9c0.5,0.9,1.2,1.6,2.2,2.2c0.9,0.5,1.9,0.8,2.9,0.8c1,0,2-0.3,2.9-0.8s1.7-1.2,2.2-2.2
		c0.5-0.9,0.8-1.9,0.8-2.9c0-1-0.3-2-0.8-2.9c-0.5-0.9-1.3-1.7-2.2-2.2C303.2,60,302.2,59.7,301.2,59.7z M298.1,69.4v-7.5h2.6
		c0.9,0,1.5,0.1,1.9,0.2c0.4,0.1,0.7,0.4,0.9,0.7c0.2,0.3,0.4,0.7,0.4,1.1c0,0.6-0.2,1-0.6,1.4s-0.9,0.6-1.6,0.7
		c0.3,0.1,0.5,0.2,0.6,0.4c0.3,0.3,0.7,0.8,1.1,1.5l0.9,1.5H303l-0.7-1.2c-0.5-0.9-1-1.5-1.3-1.8c-0.2-0.2-0.5-0.3-1-0.3h-0.7v3.2
		H298.1z M299.4,65.2h1.5c0.7,0,1.2-0.1,1.4-0.3c0.3-0.2,0.4-0.5,0.4-0.8c0-0.2-0.1-0.4-0.2-0.6c-0.1-0.2-0.3-0.3-0.5-0.4
		c-0.2-0.1-0.6-0.1-1.2-0.1h-1.4V65.2z"/>
</g>
</svg>
