<?xml version="1.0" encoding="UTF-8"?>
<svg width="255px" height="59px" viewBox="0 0 255 59" version="1.1" xmlns="http://www.w3.org/2000/svg" xmlns:xlink="http://www.w3.org/1999/xlink">
    <title>Artboard</title>
    <g id="Artboard" stroke="none" stroke-width="1" fill="none" fill-rule="evenodd">
        <g id="rinnai-logo-2" transform="translate(26.000000, 7.000000)" fill="#CF000F" fill-rule="nonzero">
            <g id="rinnai-logo">
                <path d="M27.8644068,29.075075 C30.0338983,28.3153153 36,26.3123123 36,16.021021 C36,5.72972973 29.3559322,2 17.6271186,2 L1.08474576,2 C0.474576271,2 0,2.48348348 0,3.03603603 C0,3.03603603 0,3.03603603 0,3.03603603 L0,46.8948949 C0,47.5165165 0.474576271,48 1.08474576,47.9309309 C1.08474576,47.9309309 1.08474576,47.9309309 1.08474576,47.9309309 L9.22033896,47.9309309 C9.83050848,47.9309309 10.3050847,47.4474474 10.3050847,46.8948949 C10.3050847,46.8948949 10.3050847,46.8948949 10.3050847,46.8948949 L10.3050847,30.042042 L16.6779661,30.042042 L28,46.6876877 C28.5423729,47.5165165 29.4237288,48 30.440678,48 L39.1864406,48 C39.661017,48 40,47.5855856 40,47.1021021 C40,46.963964 39.9322034,46.8258258 39.8644068,46.6876877 L27.8644068,29.075075 Z M16.4745762,22.7207207 L10.3050847,22.7207207 L10.3050847,9.25225226 L16.4745762,9.25225226 C21.4915254,9.25225226 25.6271186,10.1501502 25.6271186,15.951952 C25.6271186,21.7537538 21.4915254,22.7207207 16.4745762,22.7207207 Z" id="Shape"></path>
                <circle id="Oval" cx="49" cy="5" r="5"></circle>
                <path d="M45.0526316,13 L52.9473684,13 C53.5394737,13 54,13.4832347 54,14.1045365 L54,46.8954635 C54,47.5167653 53.5394737,48 52.9473684,48 L45.0526316,48 C44.4605263,48 44,47.5167653 44,46.8954635 L44,14.1045365 C44,13.4832347 44.4605263,13 45.0526316,13 Z" id="Path"></path>
                <path d="M81.5589352,12 C73.825095,12 71.5665399,15.1634616 70.2661597,16.4423077 L70.2661597,13.8846154 C70.2661597,13.2788461 69.7870722,12.8076923 69.1711026,12.8076923 C69.1711026,12.8076923 69.1711026,12.8076923 69.1711026,12.8076923 L61.095057,12.8076923 C60.4790874,12.8076923 60,13.2788461 60,13.8846154 L60,45.8557693 C60,46.4615384 60.4790874,46.9326923 61.095057,46.9326923 C61.095057,46.9326923 61.095057,46.9326923 61.095057,46.9326923 L69.3079848,46.9326923 C69.9239544,46.9326923 70.4030418,46.4615384 70.4030418,45.8557693 C70.4030418,45.8557693 70.4030418,45.8557693 70.4030418,45.8557693 L70.4030418,27.8173077 C70.4030418,23.1730769 73.2775666,19.7403846 78,19.7403846 C83.13308,19.7403846 85.5969584,23.3076923 85.5969584,27.8173077 L85.5969584,45.9230769 C85.5969584,46.5288461 86.0760456,47 86.6920152,47 L94.9049432,47 C95.5209128,47 96,46.5288461 96,45.9230769 L96,25.3269231 C96,15.3653846 88.9505704,12 81.5589352,12 Z" id="Path"></path>
                <path d="M122.558935,12 C114.825095,12 112.56654,15.1634616 111.26616,16.4423077 L111.26616,13.8846154 C111.26616,13.2788461 110.787072,12.8076923 110.171102,12.8076923 C110.171102,12.8076923 110.171102,12.8076923 110.171102,12.8076923 L102.095057,12.8076923 C101.479087,12.8076923 101,13.2788461 101,13.8846154 L101,45.8557693 C101,46.4615384 101.479087,46.9326923 102.095057,46.9326923 C102.095057,46.9326923 102.095057,46.9326923 102.095057,46.9326923 L110.307985,46.9326923 C110.923954,46.9326923 111.403042,46.4615384 111.403042,45.8557693 C111.403042,45.8557693 111.403042,45.8557693 111.403042,45.8557693 L111.403042,27.8173077 C111.403042,23.1730769 114.277566,19.7403846 119,19.7403846 C124.13308,19.7403846 126.596958,23.3076923 126.596958,27.8173077 L126.596958,45.9230769 C126.596958,46.5288461 127.076046,47 127.692015,47 L135.904943,47 C136.520913,47 137,46.5288461 137,45.9230769 L137,25.3269231 C137,15.3653846 129.95057,12 122.558935,12 Z" id="Path"></path>
                <path d="M153.737638,12.9556409 C146.288067,15.0323295 143.759314,20.224051 143.212556,22.0238479 C143.075867,22.4391856 143.212556,22.8545233 143.622624,23.0621922 C143.759314,23.1314152 143.896003,23.1314152 144.032692,23.1314152 L153.259225,23.0621922 C153.600948,23.0621922 153.942671,22.9237463 154.147706,22.7160775 C156.129702,20.224051 159.000178,19.6702675 161.733966,19.8087133 C168.431744,20.224051 167.884987,25.6926645 167.884987,26.1080022 C145.467931,24.0313136 139.863667,34.1378648 142.665799,41.6139439 C145.946343,50.1975903 162.349067,51.1667116 167.679953,45.2135376 C168.3634,47.0825574 168.500089,47.9824558 169.935327,47.9824558 L176.906485,47.9824558 C177.521587,47.9824558 178,47.4978951 178,46.8748884 L178,26.1080022 C178,11.155844 161.392242,10.8097293 153.737638,12.9556409 Z M167.748298,34.0686419 C167.748298,39.1219176 164.536098,42.1677276 159.000178,42.3061735 C154.899497,42.4446194 151.482263,40.6448226 151.413919,37.9451274 C151.208884,31.7842844 163.852651,32.0611762 166.654783,32.2688451 C167.679953,32.3380681 167.679953,32.3380681 167.679953,32.8226287 L167.748298,34.0686419 Z" id="Shape"></path>
                <circle id="Oval" cx="189" cy="5" r="5"></circle>
                <path d="M185.052632,13 L192.947368,13 C193.539474,13 194,13.4832347 194,14.1045365 L194,46.8954635 C194,47.5167653 193.539474,48 192.947368,48 L185.052632,48 C184.460526,48 184,47.5167653 184,46.8954635 L184,14.1045365 C184,13.4832347 184.460526,13 185.052632,13 Z" id="Path"></path>
                <path d="M204.071428,38 C204.928572,38 205.714286,38.2142858 206.5,38.6428572 C207.285714,39.0714286 207.928572,39.7142858 208.357142,40.5 C208.785714,41.2857142 209,42.1428572 209,43 C209,43.8571428 208.785714,44.7142858 208.357142,45.5 C207.928572,46.2857142 207.285714,46.9285714 206.5,47.3571428 C205.714286,47.7857142 204.857143,48 204,48 C203.142857,48 202.285714,47.7857142 201.5,47.3571428 C200.714286,46.9285714 200.071428,46.2857142 199.642858,45.5 C199.214286,44.7142858 199,43.8571428 199,43 C199,42.1428572 199.214286,41.2857142 199.642858,40.5 C200.071428,39.7142858 200.714286,39.0714286 201.5,38.6428572 C202.428572,38.2142858 203.214286,38 204.071428,38 Z M204.071428,38.8571428 C203.357143,38.8571428 202.714286,39.0714286 202,39.4285714 C201.357143,39.7857142 200.785714,40.2857142 200.428572,41 C200.071428,41.6428572 199.857143,42.3571428 199.857143,43.0714286 C199.857143,43.7857142 200.071428,44.5 200.428572,45.1428572 C200.785714,45.7857143 201.285714,46.2857142 202,46.7142858 C202.642857,47.0714286 203.357143,47.2857142 204.071428,47.2857142 C204.785714,47.2857142 205.5,47.0714286 206.142858,46.7142858 C206.785714,46.3571428 207.357143,45.8571428 207.714286,45.1428572 C208.071428,44.5 208.285714,43.7857142 208.285714,43.0714286 C208.285714,42.3571428 208.071428,41.6428572 207.714286,41 C207.357143,40.3571428 206.785714,39.7857142 206.142858,39.4285714 C205.5,39.0714286 204.785714,38.8571428 204.071428,38.8571428 Z M201.857143,45.7857142 L201.857143,40.4285714 L203.714286,40.4285714 C204.357143,40.4285714 204.785714,40.5 205.071428,40.5714286 C205.357143,40.6428572 205.571428,40.8571428 205.714286,41.0714286 C205.857143,41.2857142 206,41.5714286 206,41.8571428 C206,42.2857142 205.857143,42.5714286 205.571428,42.8571428 C205.285714,43.1428572 204.928572,43.2857142 204.428572,43.3571428 C204.642858,43.4285714 204.785714,43.5 204.857143,43.6428572 C205.071428,43.8571428 205.357143,44.2142858 205.642857,44.7142858 L206.285714,45.7857142 L205.357143,45.7857142 L204.857143,44.9285714 C204.5,44.2857142 204.142857,43.8571428 203.928572,43.6428572 C203.785714,43.5 203.571428,43.4285714 203.214286,43.4285714 L202.714286,43.4285714 L202.714286,45.7142858 L201.857143,45.7142858 L201.857143,45.7857142 Z M202.785714,42.7857142 L203.857143,42.7857142 C204.357143,42.7857142 204.714286,42.7142858 204.857143,42.5714286 C205.071428,42.4285714 205.142857,42.2142858 205.142857,42 C205.142857,41.8571428 205.071428,41.7142858 205,41.5714286 C204.928572,41.4285714 204.785714,41.3571428 204.642858,41.2857142 C204.5,41.2142858 204.214286,41.2142858 203.785714,41.2142858 L202.785714,41.2142858 L202.785714,42.7857142 Z" id="Shape"></path>
            </g>
        </g>
    </g>
</svg>