<?xml version="1.0" encoding="UTF-8"?>
<svg width="601px" height="230px" viewBox="0 0 601 230" version="1.1" xmlns="http://www.w3.org/2000/svg" xmlns:xlink="http://www.w3.org/1999/xlink">
    <title>takagi-logo</title>
    <defs>
        <path d="M148.532053,0.1 C121.932053,0.2 86.3320534,17.9 53.9320534,50.2 C3.33205339,100.8 -11.0679466,160.4 8.23205339,179.8 C12.2320534,183.8 18.0320534,186.3 25.1320534,187.4 C24.9320534,181.2 22.4320534,175.1 17.7320534,170.3 C7.63205339,160.2 14.9320534,125.3 48.4320534,91.8 C78.1320534,62.1 112.032053,49.6 125.232053,62.8 C138.432053,76 125.932053,109.9 96.2320534,139.6 C80.2320534,155.6 63.9320534,165.6 50.2320534,170.6 C51.5320534,175.5 52.0320534,180.6 51.7320534,185.7 C77.3320534,179.9 109.032053,162.8 137.832053,134 C184.532053,87.3 200.632053,33.6 177.532053,10.5 C170.532053,3.5 160.732053,0.1 149.132053,0 L148.532053,0 L148.532053,0.1 Z" id="path-1"></path>
        <linearGradient x1="28.3757436%" y1="71.618679%" x2="70.76795%" y2="29.215848%" id="linearGradient-3">
            <stop stop-color="#FAB49B" offset="0%"></stop>
            <stop stop-color="#F9B096" offset="0%"></stop>
            <stop stop-color="#F79783" offset="8.130646%"></stop>
            <stop stop-color="#F25752" offset="25.3%"></stop>
            <stop stop-color="#ED1C24" offset="40%"></stop>
            <stop stop-color="#ED1C24" offset="100%"></stop>
        </linearGradient>
    </defs>
    <g id="Page-1" stroke="none" stroke-width="1" fill="none" fill-rule="evenodd">
        <g id="takagi-logo" transform="translate(0.150000, 0.100000)">
            <path d="M59.15,170.3 C69.05,180.2 69.05,196.3 59.15,206.2 C49.25,216.1 33.15,216.1 23.25,206.2 C13.35,196.3 13.35,180.2 23.25,170.3 C28.45,165.1 35.35,162.7 42.05,162.9 C40.85,155.3 41.45,146.3 43.75,136.3 C32.75,137 22.05,141.5 13.65,149.9 C-4.55,168.1 -4.55,197.7 13.65,215.9 C31.85,234.1 61.45,234.1 79.65,215.9 C97.85,197.7 97.85,168.1 79.65,149.9 C73.65,143.9 66.45,139.9 58.85,137.9 C53.35,153 53.85,165 59.15,170.3" id="Path" fill="#21409A" fill-rule="nonzero"></path>
            <g id="Clipped" transform="translate(41.417947, 0.000000)">
                <mask id="mask-2" fill="white">
                    <use xlink:href="#path-1"></use>
                </mask>
                <g id="SVGID_1_"></g>
                <polygon id="Path" fill="url(#linearGradient-3)" fill-rule="nonzero" mask="url(#mask-2)" points="-104.667947 93.8 94.8320534 -105.8 294.332053 93.8 94.8320534 293.3"></polygon>
            </g>
            <polygon id="Path" fill="#000000" fill-rule="nonzero" points="577.65 150.7 561.65 220.6 583.85 220.6 599.95 150.7"></polygon>
            <polygon id="Path" fill="#000000" fill-rule="nonzero" points="194.15 150.7 192.15 159.1 215.75 159.1 201.55 220.6 223.85 220.6 238.05 159.1 261.55 159.1 263.55 150.7"></polygon>
            <polygon id="Path" fill="#000000" fill-rule="nonzero" points="194.15 150.7 192.15 159.1 215.75 159.1 201.55 220.6 223.85 220.6 238.05 159.1 261.55 159.1 263.55 150.7"></polygon>
            <g id="Group" transform="translate(238.350000, 149.200000)" fill="#000000" fill-rule="nonzero">
                <path d="M294.3,36.2 L287.8,64.3 C286.6,64.4 285.2,64.4 283.8,64.4 C272.7,64.4 265.9,53.3 269.9,35.7 C273.8,18.7 283.7,8.4 296,8.4 C307.1,8.4 311.2,12.4 316.9,17.1 L319.7,4.8 C313,2.6 307.3,-5.68434189e-14 296.1,-5.68434189e-14 C271.2,-5.68434189e-14 252.1,10.9 246.8,33.8 C241.5,57.1 256.1,72.8 280.3,72.8 C290.9,72.8 298.1,71.3 308.3,69.1 L315.9,36.1 L294.3,36.1 L294.3,36.2 Z" id="Path"></path>
                <path d="M130.9,32 L170.7,1.5 L154.1,1.5 L115.9,32.1 L115.7,32.1 L122.8,1.5 L101.2,1.5 L85.1,71.4 L106.7,71.4 L113.9,40.3 C119.6,49.2 125.8,60.1 130.1,66.6 C132.6,70.4 135.3,71.4 140,71.4 L158,71.4 L130.9,32 Z" id="Path"></path>
                <path d="M55.9,71.4 L78.3,71.4 L65.2,1.5 L45.4,1.5 L-5.68434189e-14,71.4 L12.5,71.4 L24.3,52.9 L53,52.9 L55.9,71.4 Z M29.8,44.5 L47.4,16.9 L51.7,44.5 L29.8,44.5 Z" id="Shape"></path>
                <path d="M214.8,71.4 L237.2,71.4 L224.1,1.5 L204.3,1.5 L158.9,71.4 L171.5,71.4 L183.4,52.9 L212.1,52.9 L214.8,71.4 Z M188.7,44.5 L206.4,16.9 L210.7,44.5 L188.7,44.5 Z" id="Shape"></path>
            </g>
        </g>
    </g>
</svg>