<svg viewBox="0 0 417 512" version="1.1" xmlns="http://www.w3.org/2000/svg">
    <g id="Page-1" stroke="none" stroke-width="1" fill="none" fill-rule="evenodd">
        <path d="M256.5,327.5 C248.1,335.9 255.6,351.7 255.6,351.7 L320.9,460.8 C320.9,460.8 331.2,474.8 340.5,474.8 C349.8,474.8 359.2,467.3 359.2,467.3 L410.5,393.6 C410.5,393.6 416.1,384.3 416.1,375.9 C416.1,364.7 399.3,361 399.3,361 L277.1,321.8 C276.1,322.8 264.9,319.1 256.5,327.5 L256.5,327.5 Z M250,272.4 C256.5,282.7 273.3,279.9 273.3,279.9 L394.5,244.5 C394.5,244.5 411.3,238 413.2,228.6 C415.1,219.3 410.4,209 410.4,209 L352.6,140.9 C352.6,140.9 347.9,132.5 336.7,131.6 C325.5,130.7 318,144.7 318,144.7 L249,252.9 C250.9,251.9 244.4,263.1 250,272.4 L250,272.4 Z M193.1,230.5 C207.1,226.8 209.9,206.3 209.9,206.3 L208,32.8 C208,32.8 206.1,11.4 195.9,5.8 C181,-3.6 176.3,1.1 171.7,2 L71,39.3 C71,39.3 60.7,43 56.1,50.5 C49.6,62.6 64.5,79.4 64.5,79.4 L169.9,222.1 C168.9,223 180.1,233.3 193.1,230.5 L193.1,230.5 Z M168,300.4 C168,287.3 152.1,279 152.1,279 L43.9,224 C43.9,224 28,217.5 19.7,222.1 C14.1,225.8 8.5,232.4 7.6,238 L0.1,324.7 C0.1,324.7 -0.8,339.6 2.9,347.1 C8.5,356.4 26.2,349.9 26.2,349.9 L153,321.9 C158.6,318.1 167,318.1 168,300.4 L168,300.4 Z M199.7,347 C188.5,341.4 175.5,352.6 175.5,352.6 L90.6,445.9 C90.6,445.9 80.3,459.9 83.1,469.2 C85.9,477.6 89.6,481.3 96.2,484.1 L181.1,511.1 C181.1,511.1 191.4,513 198.8,511.1 C210,508.3 208.1,490.6 208.1,490.6 L210,363.8 C209.9,364.8 209,352.6 199.7,347 L199.7,347 Z" id="XMLID_8_" fill="#FFFFFF" fill-rule="nonzero"></path>
    </g>
</svg>
